<svg version="1.1" id="Layer_1" xmlns="http://www.w3.org/2000/svg" xmlns:xlink="http://www.w3.org/1999/xlink" x="0px" y="0px"
	 width="100%" viewBox="0 0 352 120" enable-background="new 0 0 352 120" xml:space="preserve">
<path fill="#FEFFFF" opacity="1.000000" stroke="none" 
	d="
M230.000000,121.000000 
	C153.333359,121.000000 77.166702,121.000000 1.000041,121.000000 
	C1.000027,81.000031 1.000027,41.000057 1.000014,1.000062 
	C118.333282,1.000041 235.666565,1.000041 352.999878,1.000021 
	C352.999939,40.999935 352.999939,80.999870 352.999969,120.999901 
	C312.166656,121.000000 271.333344,121.000000 230.000000,121.000000 
M109.219231,49.366791 
	C104.113586,27.362255 81.124954,12.445228 64.112381,14.675365 
	C64.112381,24.566998 64.112381,34.468884 64.112381,44.284126 
	C74.462990,46.745770 79.778481,52.239964 80.028748,60.463127 
	C80.288109,68.984596 75.663544,74.045387 64.153259,77.869637 
	C64.153259,87.784111 64.153259,97.679680 64.153259,107.552086 
	C91.741951,108.461021 116.731155,81.135849 109.219231,49.366791 
M14.388655,38.880348 
	C5.611615,56.861454 6.882861,74.119171 19.047623,89.996635 
	C28.127680,101.847931 40.506466,107.702171 55.792583,107.773766 
	C55.792583,104.416641 55.792583,101.649490 55.792583,98.935783 
	C30.611847,92.992264 18.805948,81.160934 18.428381,61.659916 
	C18.045671,41.893307 29.455708,30.030676 55.636326,22.952927 
	C55.636326,20.037592 55.636326,17.137733 55.636326,14.248922 
	C38.605297,14.172105 23.352711,22.859383 14.388655,38.880348 
z"/>
<path fill="#35B5A8" opacity="1.000000" stroke="none" 
	d="
M109.349663,49.760384 
	C116.731155,81.135849 91.741951,108.461021 64.153259,107.552086 
	C64.153259,97.679680 64.153259,87.784111 64.153259,77.869637 
	C75.663544,74.045387 80.288109,68.984596 80.028748,60.463127 
	C79.778481,52.239964 74.462990,46.745770 64.112381,44.284126 
	C64.112381,34.468884 64.112381,24.566998 64.112381,14.675365 
	C81.124954,12.445228 104.113586,27.362255 109.349663,49.760384 
z"/>
<path fill="#39B6A9" opacity="1.000000" stroke="none" 
	d="
M14.569248,38.558010 
	C23.352711,22.859383 38.605297,14.172105 55.636326,14.248922 
	C55.636326,17.137733 55.636326,20.037592 55.636326,22.952927 
	C29.455708,30.030676 18.045671,41.893307 18.428381,61.659916 
	C18.805948,81.160934 30.611847,92.992264 55.792583,98.935783 
	C55.792583,101.649490 55.792583,104.416641 55.792583,107.773766 
	C40.506466,107.702171 28.127680,101.847931 19.047623,89.996635 
	C6.882861,74.119171 5.611615,56.861454 14.569248,38.558010 
z"/>
</svg>