<svg version="1.1" id="Layer_1" xmlns="http://www.w3.org/2000/svg" xmlns:xlink="http://www.w3.org/1999/xlink" x="0px" y="0px"
	 width="100%" viewBox="0 0 116 115" enable-background="new 0 0 116 115" xml:space="preserve">
<path fill="#FBFEFE" opacity="1.000000" stroke="none" 
	d="
M63.000000,116.000000 
	C42.000000,116.000000 21.500000,116.000000 1.000000,116.000000 
	C1.000000,77.666664 1.000000,39.333332 1.000000,1.000000 
	C39.666668,1.000000 78.333336,1.000000 117.000000,1.000000 
	C117.000000,39.333332 117.000000,77.666664 117.000000,116.000000 
	C99.166664,116.000000 81.333336,116.000000 63.000000,116.000000 
M65.493301,107.810043 
	C95.069374,105.540947 114.272690,82.450790 109.864777,53.073902 
	C105.956711,27.028315 82.717834,13.439428 63.771622,14.704196 
	C63.771622,23.787920 63.658600,32.917339 63.926773,42.035545 
	C63.957378,43.076138 65.973854,44.598866 67.324669,44.970421 
	C74.846329,47.039322 79.961906,53.305782 80.012337,60.960243 
	C80.060448,68.262787 75.080513,74.710480 67.796875,76.749016 
	C66.563210,77.094292 65.308838,77.365555 63.753689,77.747169 
	C63.753689,83.778061 63.646873,89.593773 63.790115,95.403320 
	C63.890652,99.481049 64.331963,103.550369 65.493301,107.810043 
M11.865279,44.477989 
	C5.870895,61.986183 8.646016,77.991196 20.699944,92.017624 
	C29.811581,102.620285 41.662300,107.563698 55.712727,107.788452 
	C55.712727,104.297241 55.712727,101.552559 55.712727,98.889664 
	C31.073227,93.421913 19.262522,81.819069 18.397329,61.945526 
	C18.049238,53.949848 20.387447,46.475506 25.012159,39.865166 
	C32.461655,29.217213 43.010391,24.058477 55.720181,23.353228 
	C55.720181,20.049616 55.720181,17.289360 55.720181,14.581650 
	C39.049946,12.299287 19.932331,25.204933 11.865279,44.477989 
z"/>
<path fill="#38B3A7" opacity="1.000000" stroke="none" 
	d="
M65.057205,107.716743 
	C64.331963,103.550369 63.890652,99.481049 63.790115,95.403320 
	C63.646873,89.593773 63.753689,83.778061 63.753689,77.747169 
	C65.308838,77.365555 66.563210,77.094292 67.796875,76.749016 
	C75.080513,74.710480 80.060448,68.262787 80.012337,60.960243 
	C79.961906,53.305782 74.846329,47.039322 67.324669,44.970421 
	C65.973854,44.598866 63.957378,43.076138 63.926773,42.035545 
	C63.658600,32.917339 63.771622,23.787920 63.771622,14.704196 
	C82.717834,13.439428 105.956711,27.028315 109.864777,53.073902 
	C114.272690,82.450790 95.069374,105.540947 65.057205,107.716743 
z"/>
<path fill="#3EB3A6" opacity="1.000000" stroke="none" 
	d="
M12.001535,44.114540 
	C19.932331,25.204933 39.049946,12.299287 55.720181,14.581650 
	C55.720181,17.289360 55.720181,20.049616 55.720181,23.353228 
	C43.010391,24.058477 32.461655,29.217213 25.012159,39.865166 
	C20.387447,46.475506 18.049238,53.949848 18.397329,61.945526 
	C19.262522,81.819069 31.073227,93.421913 55.712727,98.889664 
	C55.712727,101.552559 55.712727,104.297241 55.712727,107.788452 
	C41.662300,107.563698 29.811581,102.620285 20.699944,92.017624 
	C8.646016,77.991196 5.870895,61.986183 12.001535,44.114540 
z"/>
</svg>