<?xml version="1.0" encoding="UTF-8"?>
<svg xmlns="http://www.w3.org/2000/svg" xmlns:xlink="http://www.w3.org/1999/xlink" width="166.67pt" height="50.47pt" viewBox="0 0 166.67 50.47" version="1.1">
<defs>
<clipPath id="clip1">
  <path d="M 0 0 L 25 0 L 25 50.46875 L 0 50.46875 Z M 0 0 "/>
</clipPath>
<clipPath id="clip2">
  <path d="M 150 6 L 166.671875 6 L 166.671875 23 L 150 23 Z M 150 6 "/>
</clipPath>
<clipPath id="clip3">
  <path d="M 149 28 L 166.671875 28 L 166.671875 46 L 149 46 Z M 149 28 "/>
</clipPath>
</defs>
<g id="surface1">
<g clip-path="url(#clip1)" clip-rule="nonzero">
<path style=" stroke:none;fill-rule:evenodd;fill:rgb(100%,100%,100%);fill-opacity:1;" d="M 0 0 L 24.171875 0 L 24.171875 50.46875 L 0 50.46875 L 0 0 "/>
<path style=" stroke:none;fill-rule:evenodd;fill:rgb(54.116821%,14.509583%,16.078186%);fill-opacity:1;" d="M 0 0 L 24.171875 0 L 24.171875 2.128906 L 2.132813 2.128906 L 2.132813 48.339844 L 24.171875 48.339844 L 24.171875 50.46875 L 0 50.46875 L 0 0 "/>
</g>
<path style=" stroke:none;fill-rule:evenodd;fill:rgb(54.116821%,14.509583%,16.078186%);fill-opacity:1;" d="M 4.269531 4.265625 L 24.171875 4.265625 L 24.171875 24.167969 L 4.269531 24.167969 L 4.269531 4.265625 "/>
<path style=" stroke:none;fill-rule:evenodd;fill:rgb(54.116821%,14.509583%,16.078186%);fill-opacity:1;" d="M 4.269531 26.300781 L 24.171875 26.300781 L 24.171875 46.199219 L 4.269531 46.199219 L 4.269531 26.300781 "/>
<path style=" stroke:none;fill-rule:nonzero;fill:rgb(100%,100%,100%);fill-opacity:1;" d="M 14.226563 6.8125 C 18 6.8125 19.046875 8.378906 19.621094 8.378906 C 19.78125 8.378906 19.902344 8.179688 20.109375 8.179688 C 20.328125 8.179688 20.34375 8.5 20.386719 9.808594 C 20.40625 10.386719 20.449219 10.847656 20.464844 11.148438 C 20.464844 11.410156 20.425781 11.554688 20.269531 11.554688 C 20.027344 11.554688 19.886719 11.03125 19.804688 10.886719 C 18.5625 8.71875 17.136719 7.398438 14.550781 7.398438 C 10.636719 7.398438 8.75 10.027344 8.75 13.796875 C 8.75 17.332031 10.761719 20.859375 14.609375 20.859375 C 17.757813 20.859375 19.726563 18.835938 20.027344 17.890625 C 20.066406 17.75 20.183594 17.628906 20.308594 17.628906 C 20.40625 17.628906 20.488281 17.75 20.488281 17.851563 L 20.027344 19.875 C 20.007813 19.957031 18.585938 21.480469 14.070313 21.480469 C 9.957031 21.480469 7.007813 18.628906 7.007813 14.4375 C 7.007813 10.246094 9.996094 6.8125 14.226563 6.8125 "/>
<path style=" stroke:none;fill-rule:nonzero;fill:rgb(100%,100%,100%);fill-opacity:1;" d="M 20.359375 41.230469 C 20.402344 42.769531 21.828125 42.121094 21.828125 42.769531 C 21.828125 42.957031 21.585938 42.957031 21.382813 42.957031 C 21.027344 42.957031 20.382813 42.882813 19.640625 42.882813 C 19.0625 42.882813 18.46875 42.957031 18.003906 42.957031 C 17.835938 42.957031 17.796875 42.863281 17.796875 42.789063 C 17.796875 42.230469 18.988281 42.640625 18.953125 41.25 L 18.765625 33.976563 C 18.75 33.507813 18.671875 33.25 18.5625 33.25 C 18.429688 33.25 18.265625 33.417969 18.078125 33.808594 L 14.238281 41.710938 C 14.164063 41.878906 13.847656 42.660156 13.664063 42.660156 C 13.476563 42.660156 13.347656 42.253906 13.292969 42.121094 L 9.335938 33.753906 C 9.265625 33.601563 9.1875 33.546875 9.117188 33.546875 C 9.0625 33.546875 8.984375 33.636719 8.984375 33.824219 L 8.761719 40.414063 C 8.691406 42.863281 10.433594 42.105469 10.433594 42.753906 C 10.433594 42.9375 10.226563 42.957031 9.96875 42.957031 C 9.730469 42.957031 8.894531 42.882813 8.335938 42.882813 C 7.371094 42.882813 7.058594 42.957031 6.722656 42.957031 C 6.589844 42.957031 6.539063 42.863281 6.539063 42.730469 C 6.539063 42.105469 7.726563 42.863281 7.855469 40.914063 C 8.074219 37.851563 8.300781 35.863281 8.300781 33.882813 C 8.300781 29.484375 6.539063 30.519531 6.539063 29.890625 C 6.539063 29.722656 6.683594 29.6875 6.851563 29.6875 C 7.1875 29.6875 7.519531 29.761719 7.875 29.761719 C 8.207031 29.761719 8.542969 29.6875 8.875 29.6875 C 9.132813 29.6875 9.171875 30 9.265625 30.207031 L 13.679688 39.726563 C 13.867188 40.136719 13.957031 40.300781 14.089844 40.300781 C 14.183594 40.300781 14.367188 39.890625 14.664063 39.28125 L 19.078125 30.320313 C 19.195313 30.113281 19.339844 29.6875 19.5625 29.6875 C 19.75 29.6875 20.34375 29.761719 20.4375 29.761719 C 20.863281 29.761719 21.027344 29.6875 21.328125 29.6875 C 21.4375 29.6875 21.511719 29.796875 21.511719 29.910156 C 21.511719 30.484375 20.046875 29.742188 20.101563 31.933594 L 20.359375 41.230469 "/>
<path style=" stroke:none;fill-rule:nonzero;fill:rgb(54.116821%,14.509583%,16.078186%);fill-opacity:1;" d="M 37.382813 12.84375 C 37.382813 13.628906 37.382813 13.628906 38.257813 13.628906 L 40.753906 13.628906 C 43.160156 13.628906 42.535156 11.757813 43.085938 11.757813 C 43.273438 11.757813 43.34375 12.035156 43.34375 12.21875 C 43.34375 13.027344 43.296875 13.816406 43.296875 14.574219 C 43.296875 15.179688 43.34375 15.777344 43.34375 16.402344 C 43.34375 16.609375 43.253906 16.726563 43.085938 16.726563 C 42.371094 16.726563 43.160156 14.667969 41.21875 14.667969 L 37.796875 14.667969 C 37.425781 14.667969 37.382813 14.902344 37.382813 15.410156 L 37.382813 19.707031 C 37.382813 19.914063 37.382813 20.125 37.382813 20.3125 C 37.382813 21.234375 37.496094 21.648438 39.136719 21.648438 C 44.476563 21.648438 45.265625 19.246094 45.5625 19.246094 C 45.726563 19.246094 45.75 19.476563 45.75 19.523438 C 45.75 20.355469 45.148438 21.164063 44.59375 21.789063 C 43.851563 22.574219 43.34375 22.574219 42.328125 22.574219 C 40.570313 22.574219 38.8125 22.457031 37.058594 22.480469 C 36.132813 22.480469 35.164063 22.574219 34.234375 22.574219 C 34.027344 22.574219 33.890625 22.527344 33.890625 22.34375 C 33.933594 22.066406 34.164063 22.113281 34.90625 21.742188 C 35.507813 21.464844 35.554688 20.796875 35.554688 19.707031 L 35.554688 9.050781 C 35.554688 8.011719 35.554688 6.878906 34.304688 6.695313 C 34.121094 6.648438 33.613281 6.601563 33.613281 6.320313 C 33.613281 6.140625 33.75 6.046875 34.421875 6.046875 C 38.789063 6.046875 39.992188 6.140625 40.964844 6.140625 C 41.425781 6.140625 43.554688 6.046875 44.269531 6.046875 C 44.453125 6.046875 44.5 6.277344 44.5 6.554688 C 44.5 9.144531 44.175781 9.328125 44.039063 9.328125 C 43.480469 9.328125 43.851563 8.21875 43.480469 7.6875 C 43.042969 7.085938 41.613281 7.019531 40.523438 7.019531 C 40.132813 7.019531 39.785156 7.019531 39.554688 7.019531 C 39.367188 7.019531 39.136719 7.019531 38.957031 7.019531 C 37.382813 7.019531 37.382813 7.085938 37.382813 8.496094 L 37.382813 12.84375 "/>
<path style=" stroke:none;fill-rule:nonzero;fill:rgb(54.116821%,14.509583%,16.078186%);fill-opacity:1;" d="M 50.507813 19.875 C 50.507813 20.074219 50.507813 20.269531 50.507813 20.441406 C 50.507813 21.308594 50.617188 21.703125 52.160156 21.703125 C 57.175781 21.703125 57.914063 19.441406 58.199219 19.441406 C 58.351563 19.441406 58.371094 19.65625 58.371094 19.703125 C 58.371094 20.484375 57.808594 21.242188 57.285156 21.832031 C 56.59375 22.570313 56.113281 22.570313 55.15625 22.570313 C 53.507813 22.570313 51.855469 22.460938 50.207031 22.480469 C 49.339844 22.480469 48.425781 22.570313 47.558594 22.570313 C 47.363281 22.570313 47.234375 22.527344 47.234375 22.351563 C 47.277344 22.09375 47.492188 22.136719 48.1875 21.785156 C 48.753906 21.53125 48.796875 20.898438 48.796875 19.875 L 48.796875 8.757813 C 48.796875 7.609375 46.972656 7.761719 46.972656 7.324219 C 46.972656 7.085938 47.125 7.046875 47.40625 7.046875 C 47.859375 7.046875 48.539063 7.132813 49.601563 7.132813 C 50.839844 7.132813 51.359375 7.046875 51.683594 7.046875 C 51.964844 7.046875 52.097656 7.085938 52.097656 7.347656 C 52.097656 7.84375 50.507813 7.347656 50.507813 9.214844 L 50.507813 19.875 "/>
<path style=" stroke:none;fill-rule:nonzero;fill:rgb(54.116821%,14.509583%,16.078186%);fill-opacity:1;" d="M 74.070313 5.839844 C 78.417969 5.839844 79.617188 7.644531 80.289063 7.644531 C 80.472656 7.644531 80.613281 7.410156 80.84375 7.410156 C 81.097656 7.410156 81.121094 7.78125 81.167969 9.28125 C 81.191406 9.953125 81.242188 10.488281 81.261719 10.832031 C 81.261719 11.132813 81.214844 11.292969 81.03125 11.292969 C 80.75 11.292969 80.589844 10.691406 80.496094 10.53125 C 79.0625 8.035156 77.421875 6.507813 74.4375 6.507813 C 69.933594 6.507813 67.761719 9.539063 67.761719 13.886719 C 67.761719 17.953125 70.070313 22.023438 74.511719 22.023438 C 78.140625 22.023438 80.402344 19.683594 80.75 18.597656 C 80.800781 18.4375 80.9375 18.296875 81.074219 18.296875 C 81.191406 18.296875 81.285156 18.4375 81.285156 18.554688 L 80.75 20.886719 C 80.730469 20.980469 79.085938 22.738281 73.886719 22.738281 C 69.144531 22.738281 65.746094 19.453125 65.746094 14.621094 C 65.746094 9.792969 69.191406 5.839844 74.070313 5.839844 "/>
<path style=" stroke:none;fill-rule:nonzero;fill:rgb(54.116821%,14.509583%,16.078186%);fill-opacity:1;" d="M 84.566406 14.078125 C 84.566406 18.136719 87.191406 22.070313 91.492188 22.070313 C 94.664063 22.070313 97.203125 19.507813 97.203125 15.449219 C 97.203125 11.453125 94.53125 7.5625 90.300781 7.5625 C 86.652344 7.5625 84.566406 10.625 84.566406 14.078125 Z M 82.984375 14.707031 C 82.984375 10.148438 86.5 6.847656 90.949219 6.847656 C 95.378906 6.847656 98.785156 10.0625 98.785156 14.601563 C 98.785156 19.550781 95.421875 22.722656 90.582031 22.722656 C 85.867188 22.722656 82.984375 19.355469 82.984375 14.707031 "/>
<path style=" stroke:none;fill-rule:nonzero;fill:rgb(54.116821%,14.509583%,16.078186%);fill-opacity:1;" d="M 103.808594 19.875 C 103.808594 20.074219 103.808594 20.269531 103.808594 20.441406 C 103.808594 21.308594 103.914063 21.703125 105.457031 21.703125 C 110.476563 21.703125 111.214844 19.441406 111.492188 19.441406 C 111.648438 19.441406 111.667969 19.65625 111.667969 19.703125 C 111.667969 20.484375 111.105469 21.242188 110.582031 21.832031 C 109.886719 22.570313 109.410156 22.570313 108.453125 22.570313 C 106.804688 22.570313 105.15625 22.460938 103.503906 22.480469 C 102.636719 22.480469 101.722656 22.570313 100.855469 22.570313 C 100.660156 22.570313 100.527344 22.527344 100.527344 22.351563 C 100.570313 22.09375 100.789063 22.136719 101.484375 21.785156 C 102.046875 21.53125 102.089844 20.898438 102.089844 19.875 L 102.089844 8.757813 C 102.089844 7.609375 100.269531 7.761719 100.269531 7.324219 C 100.269531 7.085938 100.417969 7.046875 100.703125 7.046875 C 101.15625 7.046875 101.832031 7.132813 102.894531 7.132813 C 104.132813 7.132813 104.652344 7.046875 104.980469 7.046875 C 105.265625 7.046875 105.390625 7.085938 105.390625 7.347656 C 105.390625 7.84375 103.808594 7.347656 103.808594 9.214844 L 103.808594 19.875 "/>
<path style=" stroke:none;fill-rule:nonzero;fill:rgb(54.116821%,14.509583%,16.078186%);fill-opacity:1;" d="M 116.464844 13.429688 C 116.464844 14.164063 116.464844 14.164063 117.289063 14.164063 L 119.640625 14.164063 C 121.894531 14.164063 121.3125 12.40625 121.832031 12.40625 C 122.007813 12.40625 122.070313 12.667969 122.070313 12.84375 C 122.070313 13.597656 122.023438 14.339844 122.023438 15.058594 C 122.023438 15.621094 122.070313 16.183594 122.070313 16.769531 C 122.070313 16.96875 121.984375 17.078125 121.832031 17.078125 C 121.160156 17.078125 121.894531 15.144531 120.074219 15.144531 L 116.855469 15.144531 C 116.511719 15.144531 116.464844 15.363281 116.464844 15.839844 L 116.464844 19.875 C 116.464844 20.074219 116.464844 20.269531 116.464844 20.441406 C 116.464844 21.308594 116.574219 21.703125 118.117188 21.703125 C 123.132813 21.703125 123.875 19.441406 124.15625 19.441406 C 124.304688 19.441406 124.328125 19.65625 124.328125 19.703125 C 124.328125 20.484375 123.765625 21.242188 123.242188 21.832031 C 122.550781 22.570313 122.070313 22.570313 121.117188 22.570313 C 119.464844 22.570313 117.8125 22.460938 116.164063 22.480469 C 115.292969 22.480469 114.378906 22.570313 113.515625 22.570313 C 113.320313 22.570313 113.1875 22.527344 113.1875 22.351563 C 113.230469 22.09375 113.449219 22.136719 114.144531 21.785156 C 114.707031 21.53125 114.753906 20.898438 114.753906 19.875 L 114.753906 9.867188 C 114.753906 8.890625 114.753906 7.824219 113.582031 7.652344 C 113.40625 7.609375 112.929688 7.5625 112.929688 7.304688 C 112.929688 7.132813 113.054688 7.046875 113.6875 7.046875 C 117.792969 7.046875 118.917969 7.132813 119.832031 7.132813 C 120.265625 7.132813 122.265625 7.046875 122.941406 7.046875 C 123.113281 7.046875 123.15625 7.261719 123.15625 7.523438 C 123.15625 9.953125 122.851563 10.125 122.722656 10.125 C 122.199219 10.125 122.550781 9.085938 122.199219 8.585938 C 121.785156 8.023438 120.4375 7.957031 119.417969 7.957031 C 119.050781 7.957031 118.726563 7.957031 118.507813 7.957031 C 118.335938 7.957031 118.117188 7.957031 117.945313 7.957031 C 116.464844 7.957031 116.464844 8.023438 116.464844 9.34375 L 116.464844 13.429688 "/>
<path style=" stroke:none;fill-rule:nonzero;fill:rgb(54.116821%,14.509583%,16.078186%);fill-opacity:1;" d="M 140.636719 14.402344 C 141.074219 14.402344 141.222656 14.425781 141.222656 14.601563 C 141.222656 15.074219 140.117188 14.601563 140.117188 16.035156 L 140.117188 20.507813 C 137.878906 21.222656 137.292969 22.722656 133.425781 22.722656 C 128.628906 22.722656 125.652344 19.726563 125.652344 14.859375 C 125.652344 10.105469 129.171875 6.847656 133.773438 6.847656 C 137.53125 6.847656 138.617188 8.347656 139.226563 8.347656 C 139.46875 8.347656 139.550781 7.933594 139.792969 7.933594 C 140.027344 7.933594 140.007813 8.171875 140.027344 8.453125 L 140.246094 11.324219 C 140.269531 11.492188 140.226563 11.710938 140.007813 11.710938 C 139.445313 11.710938 138.464844 7.476563 133.339844 7.476563 C 129.433594 7.476563 127.476563 10.820313 127.476563 14.425781 C 127.476563 18.3125 129.691406 22.027344 133.882813 22.027344 C 135.859375 22.027344 138.402344 21.027344 138.402344 19.160156 L 138.402344 15.773438 C 138.402344 14.726563 136.511719 15.207031 136.511719 14.644531 C 136.511719 14.402344 136.816406 14.402344 137.011719 14.402344 L 140.636719 14.402344 "/>
<path style=" stroke:none;fill-rule:nonzero;fill:rgb(54.116821%,14.509583%,16.078186%);fill-opacity:1;" d="M 145.21875 8.933594 C 145.21875 7.324219 143.460938 7.761719 143.460938 7.28125 C 143.460938 7.085938 143.5 7.046875 143.675781 7.046875 C 144.480469 7.046875 145.261719 7.132813 146.066406 7.132813 C 146.738281 7.132813 147.414063 7.046875 148.082031 7.046875 C 148.429688 7.046875 148.496094 7.085938 148.496094 7.261719 C 148.496094 7.78125 146.933594 7.28125 146.933594 8.933594 L 146.933594 20.699219 C 146.933594 22.199219 148.867188 21.703125 148.867188 22.351563 C 148.867188 22.503906 148.804688 22.570313 148.429688 22.570313 C 147.933594 22.570313 146.996094 22.480469 146.066406 22.480469 C 144.742188 22.480469 144.285156 22.570313 143.984375 22.570313 C 143.585938 22.570313 143.527344 22.460938 143.527344 22.242188 C 143.527344 21.613281 145.21875 22.328125 145.21875 20.160156 L 145.21875 8.933594 "/>
<g clip-path="url(#clip2)" clip-rule="nonzero">
<path style=" stroke:none;fill-rule:nonzero;fill:rgb(54.116821%,14.509583%,16.078186%);fill-opacity:1;" d="M 152.449219 14.078125 C 152.449219 18.136719 155.082031 22.070313 159.375 22.070313 C 162.542969 22.070313 165.089844 19.507813 165.089844 15.449219 C 165.089844 11.453125 162.417969 7.5625 158.183594 7.5625 C 154.535156 7.5625 152.449219 10.625 152.449219 14.078125 Z M 150.867188 14.707031 C 150.867188 10.148438 154.378906 6.847656 158.832031 6.847656 C 163.269531 6.847656 166.671875 10.0625 166.671875 14.601563 C 166.671875 19.550781 163.3125 22.722656 158.464844 22.722656 C 153.753906 22.722656 150.867188 19.355469 150.867188 14.707031 "/>
</g>
<path style=" stroke:none;fill-rule:nonzero;fill:rgb(54.116821%,14.509583%,16.078186%);fill-opacity:1;" d="M 37.425781 42.304688 C 37.425781 42.4375 37.425781 42.699219 37.425781 42.964844 C 37.425781 43.363281 37.453125 43.796875 37.558594 43.914063 C 38.285156 44.65625 39.957031 44.921875 40.949219 44.921875 C 44.074219 44.921875 47.046875 43.230469 47.046875 38.101563 C 47.046875 33.144531 43.789063 30.351563 39.605469 30.332031 C 37.515625 30.332031 37.425781 30.683594 37.425781 31.742188 Z M 35.6875 32.160156 C 35.6875 29.890625 33.882813 30.59375 33.882813 30 C 33.882813 29.847656 34.058594 29.78125 34.191406 29.78125 C 34.875 29.78125 35.511719 29.871094 36.171875 29.871094 C 37.625 29.871094 39.054688 29.78125 40.949219 29.78125 C 44.847656 29.78125 48.675781 32.75 48.675781 36.867188 C 48.675781 41.972656 46.273438 45.519531 40.175781 45.519531 C 39.054688 45.519531 37.933594 45.425781 36.8125 45.425781 C 36.613281 45.425781 34.5 45.519531 34.34375 45.519531 C 34.171875 45.519531 34.128906 45.425781 34.128906 45.296875 C 34.128906 44.789063 35.6875 45.296875 35.6875 43.230469 L 35.6875 32.160156 "/>
<path style=" stroke:none;fill-rule:nonzero;fill:rgb(54.116821%,14.509583%,16.078186%);fill-opacity:1;" d="M 53.621094 36.25 C 53.621094 37 53.621094 37 54.460938 37 L 56.839844 37 C 59.125 37 58.535156 35.214844 59.0625 35.214844 C 59.238281 35.214844 59.300781 35.476563 59.300781 35.65625 C 59.300781 36.429688 59.261719 37.171875 59.261719 37.902344 C 59.261719 38.472656 59.300781 39.046875 59.300781 39.640625 C 59.300781 39.835938 59.21875 39.949219 59.0625 39.949219 C 58.382813 39.949219 59.125 37.988281 57.28125 37.988281 L 54.023438 37.988281 C 53.664063 37.988281 53.621094 38.210938 53.621094 38.695313 L 53.621094 42.789063 C 53.621094 42.988281 53.621094 43.183594 53.621094 43.363281 C 53.621094 44.242188 53.730469 44.636719 55.296875 44.636719 C 60.382813 44.636719 61.132813 42.347656 61.414063 42.347656 C 61.570313 42.347656 61.59375 42.570313 61.59375 42.613281 C 61.59375 43.40625 61.019531 44.171875 60.488281 44.765625 C 59.789063 45.519531 59.300781 45.519531 58.335938 45.519531 C 56.660156 45.519531 54.992188 45.410156 53.320313 45.425781 C 52.4375 45.425781 51.507813 45.519531 50.628906 45.519531 C 50.433594 45.519531 50.300781 45.472656 50.300781 45.296875 C 50.34375 45.035156 50.566406 45.078125 51.269531 44.722656 C 51.84375 44.460938 51.890625 43.820313 51.890625 42.789063 L 51.890625 32.640625 C 51.890625 31.652344 51.890625 30.574219 50.699219 30.398438 C 50.519531 30.351563 50.039063 30.308594 50.039063 30.046875 C 50.039063 29.871094 50.171875 29.78125 50.804688 29.78125 C 54.964844 29.78125 56.113281 29.871094 57.035156 29.871094 C 57.480469 29.871094 59.5 29.78125 60.183594 29.78125 C 60.359375 29.78125 60.40625 30 60.40625 30.269531 C 60.40625 32.734375 60.097656 32.90625 59.964844 32.90625 C 59.4375 32.90625 59.789063 31.847656 59.4375 31.34375 C 59.019531 30.773438 57.65625 30.707031 56.621094 30.707031 C 56.246094 30.707031 55.910156 30.707031 55.695313 30.707031 C 55.519531 30.707031 55.296875 30.707031 55.121094 30.707031 C 53.621094 30.707031 53.621094 30.773438 53.621094 32.113281 L 53.621094 36.25 "/>
<path style=" stroke:none;fill-rule:nonzero;fill:rgb(54.116821%,14.509583%,16.078186%);fill-opacity:1;" d="M 89.445313 43.230469 C 89.492188 45.277344 91.390625 44.414063 91.390625 45.277344 C 91.390625 45.519531 91.070313 45.519531 90.800781 45.519531 C 90.328125 45.519531 89.46875 45.421875 88.480469 45.421875 C 87.71875 45.421875 86.925781 45.519531 86.3125 45.519531 C 86.089844 45.519531 86.042969 45.398438 86.042969 45.300781 C 86.042969 44.5625 87.617188 45.101563 87.566406 43.253906 L 87.324219 33.589844 C 87.296875 32.96875 87.199219 32.625 87.050781 32.625 C 86.878906 32.625 86.660156 32.84375 86.410156 33.367188 L 81.304688 43.871094 C 81.207031 44.09375 80.785156 45.128906 80.539063 45.128906 C 80.292969 45.128906 80.125 44.585938 80.050781 44.414063 L 74.792969 33.289063 C 74.699219 33.09375 74.597656 33.019531 74.5 33.019531 C 74.421875 33.019531 74.324219 33.144531 74.324219 33.390625 L 74.03125 42.144531 C 73.933594 45.398438 76.25 44.386719 76.25 45.25 C 76.25 45.496094 75.976563 45.519531 75.632813 45.519531 C 75.308594 45.519531 74.203125 45.421875 73.460938 45.421875 C 72.179688 45.421875 71.761719 45.519531 71.320313 45.519531 C 71.144531 45.519531 71.070313 45.398438 71.070313 45.226563 C 71.070313 44.386719 72.648438 45.398438 72.824219 42.8125 C 73.117188 38.742188 73.417969 36.101563 73.417969 33.460938 C 73.417969 27.621094 71.070313 29 71.070313 28.164063 C 71.070313 27.9375 71.265625 27.890625 71.492188 27.890625 C 71.933594 27.890625 72.375 27.988281 72.847656 27.988281 C 73.289063 27.988281 73.730469 27.890625 74.175781 27.890625 C 74.523438 27.890625 74.570313 28.308594 74.699219 28.582031 L 80.566406 41.230469 C 80.8125 41.773438 80.933594 41.992188 81.109375 41.992188 C 81.230469 41.992188 81.476563 41.453125 81.871094 40.636719 L 87.742188 28.726563 C 87.890625 28.457031 88.085938 27.890625 88.378906 27.890625 C 88.628906 27.890625 89.421875 27.988281 89.539063 27.988281 C 90.109375 27.988281 90.328125 27.890625 90.722656 27.890625 C 90.875 27.890625 90.96875 28.039063 90.96875 28.183594 C 90.96875 28.949219 89.023438 27.964844 89.097656 30.875 L 89.445313 43.230469 "/>
<path style=" stroke:none;fill-rule:nonzero;fill:rgb(54.116821%,14.509583%,16.078186%);fill-opacity:1;" d="M 98.6875 28.050781 L 100.980469 25.757813 C 101.199219 25.53125 101.402344 25.328125 101.738281 25.328125 C 102.089844 25.328125 102.332031 25.679688 102.332031 26.011719 C 102.332031 26.460938 101.628906 26.753906 101.3125 26.960938 L 99.332031 28.050781 Z M 97.132813 35.761719 C 97.132813 36.554688 97.132813 36.554688 98.015625 36.554688 L 100.515625 36.554688 C 102.925781 36.554688 102.300781 34.675781 102.855469 34.675781 C 103.042969 34.675781 103.113281 34.953125 103.113281 35.136719 C 103.113281 35.949219 103.0625 36.734375 103.0625 37.503906 C 103.0625 38.101563 103.113281 38.707031 103.113281 39.332031 C 103.113281 39.542969 103.019531 39.65625 102.855469 39.65625 C 102.140625 39.65625 102.925781 37.597656 100.980469 37.597656 L 97.550781 37.597656 C 97.179688 37.597656 97.132813 37.824219 97.132813 38.335938 L 97.132813 42.640625 C 97.132813 42.851563 97.132813 43.058594 97.132813 43.246094 C 97.132813 44.171875 97.25 44.589844 98.890625 44.589844 C 104.246094 44.589844 105.035156 42.179688 105.335938 42.179688 C 105.496094 42.179688 105.519531 42.414063 105.519531 42.460938 C 105.519531 43.292969 104.917969 44.105469 104.359375 44.730469 C 103.621094 45.515625 103.113281 45.515625 102.089844 45.515625 C 100.328125 45.515625 98.570313 45.402344 96.8125 45.421875 C 95.886719 45.421875 94.910156 45.515625 93.984375 45.515625 C 93.773438 45.515625 93.636719 45.46875 93.636719 45.285156 C 93.683594 45.003906 93.914063 45.054688 94.65625 44.683594 C 95.257813 44.40625 95.300781 43.730469 95.300781 42.640625 L 95.300781 31.964844 C 95.300781 30.921875 95.300781 29.785156 94.054688 29.601563 C 93.867188 29.554688 93.359375 29.507813 93.359375 29.230469 C 93.359375 29.046875 93.496094 28.953125 94.167969 28.953125 C 98.546875 28.953125 99.753906 29.046875 100.722656 29.046875 C 101.1875 29.046875 103.316406 28.953125 104.035156 28.953125 C 104.21875 28.953125 104.269531 29.183594 104.269531 29.460938 C 104.269531 32.058594 103.941406 32.242188 103.808594 32.242188 C 103.25 32.242188 103.621094 31.128906 103.25 30.601563 C 102.808594 29.996094 101.375 29.925781 100.285156 29.925781 C 99.890625 29.925781 99.542969 29.925781 99.3125 29.925781 C 99.128906 29.925781 98.890625 29.925781 98.710938 29.925781 C 97.132813 29.925781 97.132813 29.996094 97.132813 31.410156 L 97.132813 35.761719 "/>
<path style=" stroke:none;fill-rule:nonzero;fill:rgb(54.116821%,14.509583%,16.078186%);fill-opacity:1;" d="M 114.367188 34.789063 C 114.6875 35.324219 114.832031 35.601563 114.96875 35.601563 C 115.105469 35.601563 115.273438 35.300781 115.667969 34.722656 L 117.75 31.710938 C 118.027344 31.292969 118.515625 30.617188 118.515625 30.179688 C 118.515625 29.507813 117.238281 29.714844 117.238281 29.160156 C 117.238281 28.976563 117.402344 28.953125 117.539063 28.953125 C 118.121094 28.953125 118.121094 29.046875 119.671875 29.046875 C 121.226563 29.046875 121.273438 28.953125 121.433594 28.953125 C 121.574219 28.953125 121.621094 29.089844 121.621094 29.183594 C 121.621094 29.671875 120.671875 29.183594 119.347656 31.0625 L 115.828125 36.085938 C 115.753906 36.179688 115.640625 36.34375 115.640625 36.53125 C 115.640625 36.644531 115.753906 36.875 115.917969 37.128906 L 119.953125 43.546875 C 121.179688 45.492188 122.011719 44.523438 122.011719 45.261719 C 122.011719 45.492188 121.78125 45.515625 121.59375 45.515625 C 121.273438 45.515625 120.414063 45.421875 119.488281 45.421875 C 118.609375 45.421875 117.75 45.515625 117.425781 45.515625 C 117.195313 45.515625 117.125 45.46875 117.125 45.285156 C 117.125 44.796875 118.097656 44.894531 118.097656 44.289063 C 118.097656 43.945313 118.027344 43.777344 117.585938 43.082031 L 114.6875 38.472656 C 114.625 38.359375 114.550781 38.265625 114.457031 38.265625 C 114.390625 38.265625 114.273438 38.3125 114.132813 38.519531 L 111.609375 42.316406 C 111.078125 43.105469 110.613281 43.753906 110.613281 44.195313 C 110.613281 45.054688 112.070313 44.730469 112.070313 45.285156 C 112.070313 45.445313 111.933594 45.515625 111.726563 45.515625 C 111.125 45.515625 110.5 45.421875 109.480469 45.421875 C 108.832031 45.421875 108.160156 45.515625 107.511719 45.515625 C 107.300781 45.515625 107.234375 45.445313 107.234375 45.308594 C 107.234375 44.777344 108.601563 44.984375 109.363281 43.875 L 113.628906 37.707031 C 113.742188 37.546875 113.855469 37.386719 113.855469 37.316406 C 113.855469 37.203125 113.722656 36.992188 113.628906 36.855469 L 110.035156 31.429688 C 108.324219 28.859375 107.207031 29.859375 107.207031 29.230469 C 107.207031 29.066406 107.328125 28.953125 107.488281 28.953125 C 108.019531 28.953125 108.019531 29.046875 110.035156 29.046875 C 110.753906 29.046875 111.496094 28.953125 112.210938 28.953125 C 112.394531 28.953125 112.609375 29.023438 112.609375 29.253906 C 112.609375 29.578125 111.585938 29.460938 111.585938 30.136719 C 111.585938 30.414063 111.886719 30.902344 112.722656 32.195313 L 114.367188 34.789063 "/>
<path style=" stroke:none;fill-rule:nonzero;fill:rgb(54.116821%,14.509583%,16.078186%);fill-opacity:1;" d="M 126.480469 30.96875 C 126.480469 29.253906 124.601563 29.714844 124.601563 29.207031 C 124.601563 29 124.648438 28.953125 124.832031 28.953125 C 125.695313 28.953125 126.527344 29.046875 127.386719 29.046875 C 128.101563 29.046875 128.820313 28.953125 129.539063 28.953125 C 129.910156 28.953125 129.976563 29 129.976563 29.183594 C 129.976563 29.742188 128.3125 29.207031 128.3125 30.96875 L 128.3125 43.523438 C 128.3125 45.121094 130.375 44.589844 130.375 45.285156 C 130.375 45.445313 130.300781 45.515625 129.910156 45.515625 C 129.378906 45.515625 128.382813 45.421875 127.386719 45.421875 C 125.972656 45.421875 125.480469 45.515625 125.15625 45.515625 C 124.742188 45.515625 124.675781 45.402344 124.675781 45.167969 C 124.675781 44.5 126.480469 45.261719 126.480469 42.945313 L 126.480469 30.96875 "/>
<path style=" stroke:none;fill-rule:nonzero;fill:rgb(54.116821%,14.509583%,16.078186%);fill-opacity:1;" d="M 140.84375 28.742188 C 145.199219 28.742188 146.402344 30.550781 147.074219 30.550781 C 147.261719 30.550781 147.402344 30.320313 147.628906 30.320313 C 147.882813 30.320313 147.90625 30.6875 147.953125 32.195313 C 147.980469 32.863281 148.023438 33.402344 148.046875 33.75 C 148.046875 34.050781 148 34.210938 147.816406 34.210938 C 147.539063 34.210938 147.375 33.609375 147.285156 33.449219 C 145.847656 30.945313 144.203125 29.417969 141.214844 29.417969 C 136.699219 29.417969 134.523438 32.453125 134.523438 36.808594 C 134.523438 40.882813 136.835938 44.964844 141.285156 44.964844 C 144.925781 44.964844 147.191406 42.621094 147.539063 41.53125 C 147.585938 41.371094 147.726563 41.230469 147.863281 41.230469 C 147.980469 41.230469 148.070313 41.371094 148.070313 41.488281 L 147.539063 43.828125 C 147.515625 43.917969 145.871094 45.675781 140.660156 45.675781 C 135.910156 45.675781 132.503906 42.390625 132.503906 37.546875 C 132.503906 32.699219 135.957031 28.742188 140.84375 28.742188 "/>
<g clip-path="url(#clip3)" clip-rule="nonzero">
<path style=" stroke:none;fill-rule:nonzero;fill:rgb(54.116821%,14.509583%,16.078186%);fill-opacity:1;" d="M 151.5 36.460938 C 151.5 40.789063 154.300781 44.984375 158.890625 44.984375 C 162.269531 44.984375 164.980469 42.25 164.980469 37.917969 C 164.980469 33.65625 162.132813 29.507813 157.613281 29.507813 C 153.722656 29.507813 151.5 32.777344 151.5 36.460938 Z M 149.8125 37.128906 C 149.8125 32.265625 153.558594 28.742188 158.308594 28.742188 C 163.039063 28.742188 166.671875 32.171875 166.671875 37.015625 C 166.671875 42.296875 163.082031 45.675781 157.914063 45.675781 C 152.890625 45.675781 149.8125 42.085938 149.8125 37.128906 "/>
</g>
</g>
</svg>
