<?xml version="1.0" encoding="utf-8"?>
<!-- Generator: Adobe Illustrator 26.5.0, SVG Export Plug-In . SVG Version: 6.00 Build 0)  -->
<svg version="1.1"
	 id="Capa_1" xmlns:inkscape="http://www.inkscape.org/namespaces/inkscape" xmlns:svg="http://www.w3.org/2000/svg" xmlns:sodipodi="http://sodipodi.sourceforge.net/DTD/sodipodi-0.dtd"
	 xmlns="http://www.w3.org/2000/svg" xmlns:xlink="http://www.w3.org/1999/xlink" x="0px" y="0px" viewBox="0 0 960 960"
	 style="enable-background:new 0 0 960 960;" xml:space="preserve">
<style type="text/css">
	.st0{fill-rule:evenodd;clip-rule:evenodd;fill:#5E002B;}
	.st1{fill-rule:evenodd;clip-rule:evenodd;fill:#FFFFFF;}
</style>
<sodipodi:namedview  bordercolor="#666666" borderopacity="1.0" fit-margin-bottom="0" fit-margin-left="0" fit-margin-right="0" fit-margin-top="0" id="namedview97" inkscape:current-layer="g94" inkscape:cx="-295.13889" inkscape:cy="843.75" inkscape:pagecheckerboard="0" inkscape:pageopacity="0.0" inkscape:pageshadow="2" inkscape:window-height="1017" inkscape:window-maximized="1" inkscape:window-width="1920" inkscape:window-x="-8" inkscape:window-y="394" inkscape:zoom="0.144" pagecolor="#ffffff" showgrid="false">
	</sodipodi:namedview>
<g id="g94" transform="translate(-604.59265,1446.7446)">
	<circle id="path3776" class="st0" cx="1084.6" cy="-966.7" r="480"/>
	<path id="path8-0" class="st1" d="M940-1292.6v307.7h324.4v-341.9H904.9v720h359.5v-14.8H920.9v-689.9h342.6v18.9L940-1292.6z
		 M1201.1-1196.8c-0.7,0.8-1.8,1.2-2.8,1c-2.5,0-5.2-3.3-7.9-9.5c-1.5-3.7-3.3-7.2-5.2-10.7c-8.4-13.6-19.9-25.1-33.6-33.6
		c-34-20.3-77.7-13.6-104.1,16c-16.7,20.3-25.2,46.1-24,72.4c-1.4,30.4,7.5,60.4,25.4,85.1c14.7,20.8,38.7,33,64.1,32.7
		c11.9-0.1,23.6-2.4,34.6-6.9c11.3-4.5,21.7-11.1,30.6-19.5c4.6-4.6,8.6-9.8,11.8-15.4c3.9-6.6,6.6-9.5,8.5-9.5
		c0.8-0.1,1.7,0.4,2,1.1c0.6,1,0.9,2.1,0.9,3.2c0.1,0.7,0.1,1.3,0,2c-0.1,1.1-0.2,2.2-0.6,3.3l-6.6,27c-11.8,8.8-25,15.5-39.1,19.8
		c-15.3,4.6-31.3,6.8-47.3,6.6c-30.6,1.6-60.4-9.7-82.2-31.2c-20.8-23.3-31.6-53.9-30-85.1c-0.1-17.1,2.8-34,8.8-50
		c5.5-15.1,14-29,25-40.8c9.8-10.2,21.6-18.3,34.7-23.7c14.4-5.5,29.7-8.1,45.1-7.9c9.5,0,19.1,1,28.4,3c9.3,2,18.3,5,27,8.8
		c4.6,2.2,9,4.8,13.1,7.7c2.7,2.4,6,4.2,9.5,5.3c1.5-0.2,2.9-0.8,4.2-1.7c1.1-0.7,2.3-1.1,3.6-1.3c1,0.1,1.8,0.7,2.2,1.6
		c0.6,1.6,1,3.3,1,5l3,34.1c0.1,0.9,0.1,1.8,0,2.7c0.2,1.3,0.2,2.6,0,3.9c0.1,1.5-0.1,3-0.8,4.4"/>
	<path id="path10-1" class="st1" d="M938.7-967v325.5h324.8l0.9,19.9V-967L938.7-967L938.7-967z M1242.3-702.6
		c-1.7,1-3.6,1.4-5.5,1.4l-15.4-0.6c-7.5-0.6-13.7-0.9-18.9-0.9c-5.2,0-10.3,0.4-15.4,1.1l-8.5,0.9c-1.3,0.1-2.5-0.2-3.6-0.9
		c-0.9-0.6-1.4-1.7-1.3-2.7c0-1.2,0.4-2.4,1.3-3.3c1.5-1.5,3.4-2.4,5.5-2.7c0.6,0,1.1,0,1.7-0.6l2.2-1c3.3-1.5,6-4.1,7.5-7.5
		c1.8-4.9,2.5-10.2,2.2-15.4v-6.3c0-3,0-5.5,0-7.1l-1.9-104.1c-0.1-4.2-0.5-8.3-1.1-12.4c-0.9-2.5-1.6-3.6-2.7-3.6s-2.5,0.9-4.2,2.7
		c-1.8,2.6-3.3,5.4-4.6,8.2l-69.9,141.9c-0.9,2.2-2.1,4.2-3.6,6.1c-1,1-2.2,1.5-3.6,1.6c-1.5,0-2.9-0.7-3.8-1.9
		c-1.6-1.6-2.7-3.6-3.3-5.8l-68.4-144.9c-0.6-1.1-1.2-2.2-1.9-3.2c-0.9-0.9-1.4-1.1-1.9-1.1c-0.5,0-2.3,3-2.8,9.5
		c-0.6,6.4-1.3,18.9-1.9,36l-1.7,43.8c0,3.8,0,7.7,0,11.8v16.7c-0.4,7.6,0.4,15.3,2.5,22.6c1.9,4.5,5.2,8.2,9.5,10.7
		c2.9,1.7,6.1,2.8,9.5,3.3l0,0h0.5c4.7,1.1,7.2,3,7.2,5.2c0,1.3-0.7,2.5-1.9,3c-1.5,0.9-3.3,1.3-5,1.1c-2,0-4.1-0.2-6.1-0.6
		c-10.4-0.9-20.3-1.4-29.7-1.4c-4.5,0-9.1,0.3-13.5,1.1l-7.4,0.9c-1.3-0.1-2.6-0.6-3.6-1.4c-1.1-0.9-1.6-2.2-1.6-3.6
		c0-0.9,0.3-1.7,0.8-2.5c0.4-0.7,1-1.2,1.7-1.6c0.6,0,0.9,0,1,0c0.5-0.1,1-0.1,1.4,0c4.2-1.3,8.1-3.3,11.5-6.1
		c2.2-2.2,3.6-4.9,4.2-7.9c3.9-16.8,6.2-33.9,6.9-51.2c2.2-27.2,3.3-56.8,3.3-88.9c0.3-11.8-1.1-23.6-4.2-35
		c-2.1-7.5-6.7-14.2-13-18.9c-2.1-1.5-4.6-2.6-7.2-3c-0.1-0.1-0.3-0.1-0.5,0h-0.6c-3.9-1.1-5.8-3-5.8-5.2c-0.1-1.4,0.5-2.7,1.6-3.6
		c1.5-0.9,3.3-1.3,5-1.1l7.7,0.6c4.2,0,7.9,0.6,11,0.6h2.8c0.5-0.1,1.1-0.1,1.6,0h2.6c6.2-0.8,12.2,2.4,15.1,7.9l0,0l80.7,170.3
		c0.5,1.1,1.2,2.2,2.2,3c0.5,0.7,1.3,1.1,2.2,1c0.9,0.1,1.7-0.3,2.2-1c1-1.1,1.8-2.3,2.6-3.6l85.1-172.3c0.4-0.3,0.6-0.7,0.9-1.1
		c1.3-3.1,4.4-5,7.8-4.8h6.8c3.3,0,6.9,0,10.8-0.6c3.9-0.6,6.6-0.9,7.4-0.9c1.8-0.1,3.7,0.2,5.3,1.1c1,0.8,1.6,2,1.6,3.3
		c0,2.2-1.9,4.1-6.1,5.2c-1.7,0.2-3.3,0.6-4.9,1.1c-1.2,0.4-2.4,1-3.3,1.9c-3.2,1.9-5.7,4.6-7.2,7.9c-1.8,4.6-2.5,9.5-2.2,14.4v4.3
		l3.3,147.5v2.3c0,16.2,4.4,26.1,11.8,30c2.2,0.9,4.4,1.6,6.6,2.2c0,0,0.8,0,1,0.6c4.2,1.1,6.1,2.5,6.1,4.4c0.1,1.4-0.6,2.7-1.9,3.2
		"/>
</g>
</svg>
